<?xml version="1.0" encoding="utf-8"?>
<!-- Generator: Adobe Illustrator 27.4.0, SVG Export Plug-In . SVG Version: 6.00 Build 0)  -->
<svg version="1.1" id="Camada_1" xmlns="http://www.w3.org/2000/svg" xmlns:xlink="http://www.w3.org/1999/xlink" x="0px" y="0px"
	 viewBox="0 0 1080 1080" style="enable-background:new 0 0 1080 1080;" xml:space="preserve">
<style type="text/css">
	.st0{fill:#40F28A;}
</style>
<g>
	<g>
		<polygon class="st0" points="197.7,667.2 208.1,667.2 208.1,637.9 244.4,637.9 244.4,629 208.1,629 208.1,603.7 248.9,603.7 
			248.9,594.7 197.7,594.7 		"/>
		<path class="st0" d="M314.6,594.7l-32.8,72.5h10.7l8-18.1H339l8,18.1h10.9l-32.9-72.5H314.6z M304.1,640.8l15.6-35.6l15.6,35.6
			H304.1z"/>
		<path class="st0" d="M412.7,611c2.6-2.5,5.6-4.4,9.1-5.8c3.5-1.4,7.3-2.1,11.3-2.1c3.9,0,7.6,0.7,11.1,2.1
			c3.5,1.4,6.6,3.6,9.3,6.5l6.7-6.5c-3.3-3.7-7.3-6.5-12.1-8.4c-4.7-1.9-9.9-2.8-15.5-2.8c-5.5,0-10.6,0.9-15.3,2.7
			c-4.7,1.8-8.7,4.4-12.2,7.8c-3.5,3.3-6.1,7.3-8.1,11.8c-1.9,4.5-2.9,9.4-2.9,14.8c0,5.4,1,10.3,2.9,14.8c1.9,4.5,4.6,8.4,8,11.8
			c3.4,3.3,7.5,5.9,12.1,7.8c4.7,1.8,9.8,2.7,15.3,2.7c5.7,0,10.9-1,15.6-2.9c4.7-1.9,8.8-4.8,12.1-8.5l-6.7-6.5
			c-2.8,3-5.9,5.2-9.3,6.6c-3.5,1.4-7.1,2.1-11.1,2.1c-4.1,0-7.9-0.7-11.3-2.1c-3.5-1.4-6.5-3.3-9.1-5.8c-2.6-2.5-4.5-5.4-6-8.9
			c-1.4-3.4-2.1-7.1-2.1-11.1c0-4,0.7-7.7,2.1-11.1C408.2,616.4,410.2,613.5,412.7,611z"/>
		<polygon class="st0" points="496.4,603.7 521.3,603.7 521.3,667.2 531.5,667.2 531.5,603.7 556.4,603.7 556.4,594.7 496.4,594.7 
					"/>
		<path class="st0" d="M659.5,604.4c-3.5-3.3-7.6-5.9-12.2-7.8c-4.7-1.8-9.8-2.7-15.3-2.7c-5.6,0-10.7,0.9-15.4,2.8
			c-4.7,1.9-8.8,4.5-12.2,7.8c-3.5,3.3-6.1,7.3-8.1,11.8c-1.9,4.5-2.9,9.4-2.9,14.7c0,5.3,1,10.2,2.9,14.7c1.9,4.5,4.6,8.4,8.1,11.8
			c3.5,3.3,7.5,6,12.3,7.8s9.9,2.8,15.4,2.8c5.5,0,10.6-0.9,15.3-2.7c4.7-1.8,8.7-4.4,12.2-7.8c3.5-3.3,6.2-7.3,8.1-11.8
			c1.9-4.5,2.8-9.4,2.8-14.8c0-5.4-0.9-10.3-2.8-14.8C665.6,611.7,662.9,607.8,659.5,604.4z M657.9,642.1c-1.4,3.4-3.4,6.3-5.9,8.9
			c-2.5,2.5-5.5,4.5-8.9,5.9c-3.4,1.4-7.1,2.1-11.1,2.1c-4.1,0-7.8-0.7-11.2-2.1c-3.4-1.4-6.4-3.3-9-5.9c-2.6-2.5-4.5-5.5-6-8.9
			c-1.4-3.4-2.1-7.1-2.1-11.1c0-4,0.7-7.7,2.1-11.1c1.4-3.4,3.4-6.3,6-8.9c2.6-2.5,5.5-4.5,9-5.9c3.4-1.4,7.2-2.1,11.2-2.1
			c4,0,7.7,0.7,11.1,2.1c3.4,1.4,6.4,3.3,8.9,5.9c2.5,2.5,4.5,5.5,5.9,8.9c1.4,3.4,2.1,7.1,2.1,11.1
			C660,635,659.3,638.7,657.9,642.1z"/>
		<path class="st0" d="M763.4,642.2c4.5-2,7.9-4.9,10.4-8.6c2.4-3.8,3.6-8.3,3.6-13.5c0-5.2-1.2-9.8-3.6-13.6
			c-2.4-3.8-5.9-6.7-10.4-8.7c-4.5-2-9.9-3-16.3-3h-28.3v72.5h10.4v-22.1h17.9c1.6,0,3.1-0.1,4.6-0.2l15.6,22.2h11.3L761.4,643
			C762.1,642.7,762.7,642.5,763.4,642.2z M746.8,636.4h-17.6v-32.6h17.6c6.6,0,11.7,1.4,15.1,4.2c3.4,2.8,5.1,6.8,5.1,12
			c0,5.2-1.7,9.2-5.1,12.1C758.5,634.9,753.4,636.4,746.8,636.4z"/>
		<polygon class="st0" points="882.3,594.7 872,594.7 848.7,633 825.5,594.7 814.4,594.7 843.2,642 843.2,667.2 853.5,667.2 
			853.5,642.1 		"/>
	</g>
	<g>
		<g>
			<path class="st0" d="M351.6,485c-40.3,0-73.1,32.7-73.1,73.1v0h73.1L351.6,485L351.6,485z"/>
			<polygon class="st0" points="197.7,485 197.7,485.1 197.7,558.1 270.8,558.1 270.8,485.1 270.8,485 270.8,412 197.7,412 			"/>
		</g>
		<path class="st0" d="M801.4,485c-0.1-40.3-32.7-73-73.1-73v73v0.1v73h73.1v-73v0L801.4,485L801.4,485z"/>
		<path class="st0" d="M809.2,416.7v73.1h0c0.1,40.3,32.7,73,73.1,73v-73v-0.1v-73H809.2z"/>
		<path class="st0" d="M460,411.9L460,411.9l0,73.1v73.1h0c40.3,0,73.1-32.7,73.1-73.1v0C533.1,444.7,500.4,411.9,460,411.9z"/>
		<path class="st0" d="M379.2,485L379.2,485c0,40.4,32.7,73.1,73.1,73.1V485v-73.1C411.9,411.9,379.2,444.7,379.2,485z"/>
		<path class="st0" d="M634.6,411.9L634.6,411.9l0,73.1v73.1h0c40.3,0,73.1-32.7,73.1-73.1v0C707.7,444.7,675,411.9,634.6,411.9z"/>
		<path class="st0" d="M626.8,411.9c-40.3,0-73.1,32.7-73.1,73.1v0c0,40.3,32.7,73.1,73.1,73.1h0V485L626.8,411.9L626.8,411.9z"/>
	</g>
</g>
</svg>
